HIERARCHY
ROOT root
{
	OFFSET 0.000000 0.000000 0.000000
	CHANNELS 6 Xposition Yposition Zposition Zrotation Yrotation Xrotation
	JOINT lhip
	{
		OFFSET 0.058581 -0.082280 -0.017664
		CHANNELS 3 Zrotation Yrotation Xrotation
		JOINT lknee
		{
			OFFSET 0.043451 -0.386469 0.008037
			CHANNELS 3 Zrotation Yrotation Xrotation
			JOINT lankle
			{
				OFFSET -0.014790 -0.426874 -0.037428
				CHANNELS 3 Zrotation Yrotation Xrotation
				JOINT ltoe
				{
					OFFSET 0.041054 -0.060286 0.122042
					CHANNELS 3 Zrotation Yrotation Xrotation
					End Site
					{
						OFFSET 0.000000 0.000000 0.000000
					}
				}
			}
		}
	}
	JOINT rhip
	{
		OFFSET -0.060310 -0.090513 -0.013543
		CHANNELS 3 Zrotation Yrotation Xrotation
		JOINT rknee
		{
			OFFSET -0.043257 -0.383688 -0.004843
			CHANNELS 3 Zrotation Yrotation Xrotation
			JOINT rankle
			{
				OFFSET 0.019056 -0.420046 -0.034562
				CHANNELS 3 Zrotation Yrotation Xrotation
				JOINT rtoe
				{
					OFFSET -0.034840 -0.062106 0.130323
					CHANNELS 3 Zrotation Yrotation Xrotation
					End Site
					{
						OFFSET 0.000000 0.000000 0.000000
					}
				}
			}
		}
	}
	JOINT lowerback
	{
		OFFSET 0.004439 0.124404 -0.038385
		CHANNELS 3 Zrotation Yrotation Xrotation
		JOINT upperback
		{
			OFFSET 0.004488 0.137956 0.026820
			CHANNELS 3 Zrotation Yrotation Xrotation
			JOINT chest
			{
				OFFSET -0.002265 0.056032 0.002855
				CHANNELS 3 Zrotation Yrotation Xrotation
				JOINT lowerneck
				{
					OFFSET -0.013390 0.211636 -0.033468
					CHANNELS 3 Zrotation Yrotation Xrotation
					JOINT upperneck
					{
						OFFSET 0.010113 0.088937 0.050410
						CHANNELS 3 Zrotation Yrotation Xrotation
						End Site
						{
							OFFSET 0.000000 0.000000 0.000000
						}
					}
				}
				JOINT lclavicle
				{
					OFFSET 0.071702 0.114000 -0.018898
					CHANNELS 3 Zrotation Yrotation Xrotation
					JOINT lshoulder
					{
						OFFSET 0.122921 0.045205 -0.019046
						CHANNELS 3 Zrotation Yrotation Xrotation
						JOINT lelbow
						{
							OFFSET 0.255332 -0.015649 -0.022946
							CHANNELS 3 Zrotation Yrotation Xrotation
							JOINT lwrist
							{
								OFFSET 0.265709 0.012698 -0.007375
								CHANNELS 3 Zrotation Yrotation Xrotation
								End Site
								{
									OFFSET 0.000000 0.000000 0.000000
								}
							}
						}
					}
				}
				JOINT rclavicle
				{
					OFFSET -0.082954 0.112472 -0.023707
					CHANNELS 3 Zrotation Yrotation Xrotation
					JOINT rshoulder
					{
						OFFSET -0.113228 0.046853 -0.008472
						CHANNELS 3 Zrotation Yrotation Xrotation
						JOINT relbow
						{
							OFFSET -0.260127 -0.014369 -0.031269
							CHANNELS 3 Zrotation Yrotation Xrotation
							JOINT rwrist
							{
								OFFSET -0.269108 0.006794 -0.006027
								CHANNELS 3 Zrotation Yrotation Xrotation
								End Site
								{
									OFFSET 0.000000 0.000000 0.000000
								}
							}
						}
					}
				}
			}
		}
	}
}
MOTION
Frames: 9
Frame Time: 0.033333
-1.707824 0.274628 0.998735 90.512495 1.286985 89.591305 -0.423481 1.834201 2.387951 -1.534349 -6.290972 4.049969 7.063082 12.812413 -14.447269 0.000000 -0.000000 0.000000 1.392888 -1.743342 -4.593928 0.376962 -0.977937 15.007353 1.769988 -10.202784 -15.424150 0.000000 -0.000000 0.000000 0.374394 -0.288595 5.263389 1.710857 -0.064666 -8.099982 0.335390 -1.294998 2.544700 3.628419 -1.121604 0.339924 -0.529358 -4.022827 10.472789 -26.172924 7.308639 2.817823 -55.634480 -3.736820 9.746291 4.578675 -31.459379 18.762244 -2.953288 0.113327 2.383081 24.035711 -2.929951 0.257887 58.733961 -0.888793 16.870254 -9.807484 28.781909 9.370904 -2.306950 1.005586 0.463694 
-1.706463 0.278718 0.996040 91.944436 1.001972 90.171844 -1.230613 0.835358 1.497076 -0.978316 -6.572254 4.388806 7.266214 12.680279 -14.060559 0.000000 -0.000000 0.000000 0.359534 -2.989018 -4.870362 1.103091 -1.424816 14.730318 1.848961 -10.025989 -15.476379 0.000000 -0.000000 0.000000 1.558746 -0.310160 4.044344 1.235468 -1.496206 -6.772405 -0.566785 -1.537119 1.917637 3.509932 -0.939320 0.360371 -0.398991 -3.852913 9.754819 -25.755287 7.368235 2.724787 -56.107575 -3.609656 9.856714 4.736209 -31.668333 19.093941 -3.200987 0.291126 1.415859 23.516203 -2.734969 0.648329 59.348924 -0.577953 16.836158 -9.958611 28.823172 9.770852 -2.376224 0.695294 0.234237 
-1.705833 0.278356 0.994764 91.869857 0.984674 89.923600 -1.161469 1.032542 1.742671 -0.990724 -6.534259 4.283062 6.909536 12.469957 -13.989780 0.000000 -0.000000 0.000000 0.335211 -3.174453 -4.612975 1.058742 -1.432447 14.704621 1.768386 -9.756807 -15.466822 0.000000 -0.000000 0.000000 1.951766 -0.782149 4.336302 1.111202 -2.040717 -5.792094 -0.918531 -1.074575 1.082183 3.595876 -0.332627 -0.321545 -0.531180 -3.675475 9.780581 -25.485762 7.753728 2.089478 -56.177269 -3.322414 9.734724 4.521357 -31.843467 19.300884 -3.265757 0.122027 1.443589 23.405854 -2.355378 0.858470 59.792347 -0.010749 16.805024 -9.976846 28.425099 9.603286 -2.460592 0.813635 0.411798 
-1.705357 0.277452 0.994073 91.638216 1.060710 89.630989 -0.938226 1.273395 2.086447 -1.081067 -6.465935 4.127489 6.502275 12.339106 -13.998019 0.000000 -0.000000 0.000000 0.528124 -3.124392 -4.318953 0.953377 -1.262166 14.656681 1.776870 -9.745844 -15.520126 0.000000 -0.000000 0.000000 1.706746 -0.558621 4.742128 1.076142 -1.583214 -5.061088 -0.621381 -1.290209 0.544666 3.893810 -0.258189 -1.443194 -0.659231 -4.238287 10.470359 -25.287522 7.545106 1.920932 -56.726162 -3.703785 9.924104 4.720320 -31.505569 19.108771 -3.124675 -0.107046 1.827558 23.459970 -2.584538 0.298304 59.620685 -0.044611 16.975106 -9.860167 28.348998 9.344500 -2.400455 1.001573 0.569246 
-1.704947 0.276891 0.993495 91.512223 1.091533 89.413163 -0.813902 1.457599 2.339238 -1.130261 -6.429745 4.049351 6.284925 12.205250 -14.016507 0.000000 -0.000000 0.000000 0.619100 -3.147711 -4.091769 0.880026 -1.212768 14.648085 1.720612 -9.640295 -15.566241 0.000000 -0.000000 0.000000 1.683379 -0.611440 5.052428 1.032448 -1.541260 -4.518035 -0.579118 -1.234587 0.079523 4.019681 -0.061490 -2.077615 -0.737452 -4.419417 10.731767 -25.097571 7.538144 1.691326 -57.001379 -3.750268 9.979172 4.744694 -31.416121 19.140242 -3.123880 -0.241287 1.983371 23.455990 -2.557767 0.146234 59.721575 0.086838 17.018314 -9.855011 28.235241 9.199179 -2.353365 1.097854 0.628928 
-1.704165 0.275959 0.992748 91.267896 1.133648 89.247004 -0.621942 1.782645 2.576287 -1.219790 -6.387181 3.938982 6.052191 12.011597 -14.062234 0.000000 -0.000000 0.000000 0.780500 -3.121643 -3.918323 0.744276 -1.145974 14.644623 1.685309 -9.468761 -15.607325 0.000000 -0.000000 0.000000 1.686660 -0.848484 5.596242 0.980125 -1.559282 -4.206208 -0.579412 -1.017787 -0.595594 4.118859 0.267973 -2.635822 -0.788950 -4.327143 10.873884 -24.798803 7.867336 1.258672 -57.262090 -3.575092 9.968318 4.508669 -31.379623 19.516139 -3.144341 -0.445168 2.117206 23.359889 -2.605808 0.105171 60.028035 0.289827 17.063582 -9.762051 28.076638 9.132683 -2.372181 1.247409 0.669429 
-1.703227 0.274687 0.991803 90.852887 1.211414 89.335605 -0.350877 2.067859 2.605359 -1.390692 -6.230653 3.795488 6.076529 11.901474 -14.072961 0.000000 -0.000000 0.000000 1.023553 -2.849097 -4.030561 0.597086 -1.099695 14.682967 1.572442 -9.362619 -15.581366 0.000000 -0.000000 0.000000 1.551811 -0.924440 5.620623 1.036573 -1.408944 -4.143844 -0.457180 -0.838873 -0.782282 4.089797 0.445442 -2.634480 -0.655781 -3.912279 10.234518 -24.543663 7.971745 1.169080 -57.609681 -3.525407 9.869885 4.432816 -31.348189 19.762394 -3.190911 -0.464115 2.047781 23.040176 -2.637640 0.260703 60.488510 0.503558 16.986583 -9.733777 28.058089 9.290078 -2.328924 1.247046 0.464894 
-1.702499 0.274124 0.991321 90.675872 1.225612 89.372880 -0.272138 2.165578 2.659109 -1.444905 -6.169619 3.705854 6.128497 11.860423 -14.104098 0.000000 -0.000000 0.000000 1.084756 -2.748881 -4.030853 0.570210 -1.081832 14.650228 1.552667 -9.304811 -15.571202 0.000000 -0.000000 0.000000 1.478123 -0.908039 5.518248 1.047959 -1.361524 -4.074023 -0.412854 -0.790269 -0.747315 4.062222 0.471689 -2.612161 -0.587229 -3.801100 9.884690 -24.448155 7.885452 1.262189 -57.841050 -3.626670 9.814478 4.563664 -31.291402 19.696411 -3.202651 -0.437580 2.009503 22.917237 -2.562973 0.345969 60.755710 0.629761 16.916068 -9.809732 28.005154 9.297977 -2.289544 1.221558 0.370396 
-1.702162 0.273892 0.991196 90.658850 1.218104 89.379647 -0.278678 2.171002 2.675886 -1.426751 -6.143987 3.706553 6.150818 11.813079 -14.156030 0.000000 -0.000000 0.000000 1.092747 -2.758088 -4.012992 0.566087 -1.087699 14.634551 1.571259 -9.276208 -15.599931 0.000000 -0.000000 0.000000 1.440150 -0.901985 5.547941 1.041002 -1.388120 -4.116084 -0.412850 -0.789516 -0.734203 4.069467 0.490107 -2.668171 -0.594351 -3.853613 9.928606 -24.432384 7.848817 1.322652 -57.918115 -3.695054 9.807362 4.654604 -31.234930 19.616734 -3.188630 -0.449316 2.053685 22.952182 -2.512178 0.361817 60.850992 0.680359 16.893332 -9.877144 27.917433 9.221390 -2.289680 1.234095 0.373775 
